<svg width="132" height="30" viewBox="0 0 132 30" fill="none" xmlns="http://www.w3.org/2000/svg">
<path d="M3.90713 6.21769C4.26826 4.33799 5.42375 3.93971 7.07225 4.33712C9.51488 4.97095 11.0757 6.85649 10.5791 8.67153C10.5703 8.70386 10.5622 8.73619 10.5558 8.76935L7.03904 26.9C6.62955 30.1031 -0.645576 32.138 0.0463664 26.2263L3.90713 6.21769Z" fill="#4CC67F"/>
<path d="M15.2357 2.02018C15.5969 0.140484 16.7524 -0.257797 18.4009 0.139611C20.8435 0.773437 22.4043 2.65898 21.9077 4.47403C21.899 4.50635 21.8908 4.53868 21.8844 4.57184L18.3677 22.7025C17.9582 25.9056 10.683 27.9405 11.375 22.0288L15.2357 2.02018Z" fill="#4CC67F"/>
<path d="M46.4235 8.336H40.7595V23H38.0475V8.336H32.3595V5.96H46.4235V8.336ZM50.7613 23.24C49.7693 23.24 48.8813 23.072 48.0973 22.736C47.3133 22.384 46.6333 21.904 46.0573 21.296C45.4973 20.688 45.0653 20 44.7613 19.232C44.4573 18.448 44.3053 17.616 44.3053 16.736C44.3053 15.856 44.4573 15.024 44.7613 14.24C45.0653 13.456 45.4973 12.768 46.0573 12.176C46.6333 11.568 47.3133 11.096 48.0973 10.76C48.8973 10.408 49.7853 10.232 50.7613 10.232C51.7373 10.232 52.6173 10.408 53.4013 10.76C54.2013 11.096 54.8813 11.568 55.4413 12.176C56.0173 12.768 56.4573 13.456 56.7613 14.24C57.0653 15.024 57.2173 15.856 57.2173 16.736C57.2173 17.616 57.0653 18.448 56.7613 19.232C56.4573 20 56.0173 20.688 55.4413 21.296C54.8813 21.904 54.2013 22.384 53.4013 22.736C52.6173 23.072 51.7373 23.24 50.7613 23.24ZM47.0173 16.76C47.0173 17.56 47.1853 18.28 47.5213 18.92C47.8573 19.56 48.3053 20.064 48.8653 20.432C49.4253 20.8 50.0573 20.984 50.7613 20.984C51.4493 20.984 52.0733 20.8 52.6333 20.432C53.2093 20.048 53.6653 19.536 54.0013 18.896C54.3373 18.24 54.5053 17.52 54.5053 16.736C54.5053 15.936 54.3373 15.216 54.0013 14.576C53.6653 13.936 53.2093 13.432 52.6333 13.064C52.0733 12.68 51.4493 12.488 50.7613 12.488C50.0573 12.488 49.4253 12.68 48.8653 13.064C48.3053 13.448 47.8573 13.96 47.5213 14.6C47.1853 15.224 47.0173 15.944 47.0173 16.76ZM65.9668 23.24C64.9588 23.24 64.0708 23 63.3028 22.52C62.5348 22.04 61.9268 21.416 61.4788 20.648V28.112H58.8388V10.448H61.1668V12.704C61.6468 11.952 62.2708 11.352 63.0388 10.904C63.8068 10.456 64.6628 10.232 65.6068 10.232C66.4708 10.232 67.2628 10.408 67.9828 10.76C68.7028 11.096 69.3268 11.568 69.8548 12.176C70.3828 12.784 70.7908 13.48 71.0788 14.264C71.3828 15.032 71.5348 15.848 71.5348 16.712C71.5348 17.912 71.2948 19.008 70.8148 20C70.3508 20.992 69.6948 21.784 68.8468 22.376C68.0148 22.952 67.0548 23.24 65.9668 23.24ZM65.1028 20.984C65.6628 20.984 66.1668 20.864 66.6148 20.624C67.0788 20.384 67.4708 20.064 67.7908 19.664C68.1268 19.264 68.3828 18.808 68.5588 18.296C68.7348 17.784 68.8228 17.256 68.8228 16.712C68.8228 16.136 68.7268 15.592 68.5348 15.08C68.3428 14.568 68.0628 14.12 67.6948 13.736C67.3428 13.352 66.9268 13.048 66.4468 12.824C65.9828 12.6 65.4708 12.488 64.9108 12.488C64.5748 12.488 64.2228 12.552 63.8548 12.68C63.4868 12.808 63.1428 12.984 62.8228 13.208C62.5028 13.432 62.2228 13.696 61.9828 14C61.7428 14.304 61.5748 14.624 61.4788 14.96V18.248C61.7028 18.76 61.9988 19.224 62.3668 19.64C62.7348 20.04 63.1588 20.368 63.6388 20.624C64.1188 20.864 64.6068 20.984 65.1028 20.984ZM77.6531 23.24C76.5971 23.24 75.5971 23.072 74.6531 22.736C73.7091 22.384 72.9011 21.864 72.2291 21.176L73.2131 19.4C73.9331 20.04 74.6531 20.504 75.3731 20.792C76.1091 21.08 76.8371 21.224 77.5571 21.224C78.2931 21.224 78.8931 21.088 79.3571 20.816C79.8211 20.528 80.0531 20.112 80.0531 19.568C80.0531 19.168 79.9331 18.872 79.6931 18.68C79.4531 18.488 79.1011 18.32 78.6371 18.176C78.1891 18.032 77.6451 17.872 77.0051 17.696C76.1091 17.424 75.3571 17.144 74.7491 16.856C74.1411 16.552 73.6851 16.184 73.3811 15.752C73.0771 15.32 72.9251 14.768 72.9251 14.096C72.9251 13.28 73.1331 12.584 73.5491 12.008C73.9651 11.432 74.5411 10.992 75.2771 10.688C76.0291 10.384 76.8931 10.232 77.8691 10.232C78.7811 10.232 79.6211 10.376 80.3891 10.664C81.1731 10.936 81.8611 11.368 82.4531 11.96L81.3251 13.712C80.7651 13.2 80.1891 12.824 79.5971 12.584C79.0211 12.344 78.3971 12.224 77.7251 12.224C77.3411 12.224 76.9731 12.272 76.6211 12.368C76.2691 12.448 75.9731 12.608 75.7331 12.848C75.5091 13.072 75.3971 13.392 75.3971 13.808C75.3971 14.144 75.4931 14.416 75.6851 14.624C75.8771 14.832 76.1651 15.008 76.5491 15.152C76.9331 15.296 77.4051 15.456 77.9651 15.632C78.9411 15.92 79.7731 16.208 80.4611 16.496C81.1491 16.768 81.6771 17.128 82.0451 17.576C82.4291 18.008 82.6211 18.608 82.6211 19.376C82.6211 20.592 82.1651 21.544 81.2531 22.232C80.3571 22.904 79.1571 23.24 77.6531 23.24ZM89.9462 23.24C88.9702 23.24 88.0822 23.072 87.2822 22.736C86.4982 22.384 85.8182 21.912 85.2422 21.32C84.6662 20.712 84.2182 20.024 83.8982 19.256C83.5942 18.472 83.4422 17.64 83.4422 16.76C83.4422 15.576 83.7142 14.496 84.2582 13.52C84.8022 12.528 85.5622 11.736 86.5382 11.144C87.5142 10.536 88.6582 10.232 89.9702 10.232C91.2822 10.232 92.4102 10.536 93.3542 11.144C94.3142 11.736 95.0582 12.52 95.5862 13.496C96.1142 14.472 96.3782 15.52 96.3782 16.64C96.3782 16.832 96.3702 17.016 96.3542 17.192C96.3382 17.352 96.3222 17.488 96.3062 17.6H86.2502C86.2982 18.336 86.4982 18.984 86.8502 19.544C87.2182 20.088 87.6822 20.52 88.2422 20.84C88.8022 21.144 89.4022 21.296 90.0422 21.296C90.7462 21.296 91.4102 21.12 92.0342 20.768C92.6742 20.416 93.1062 19.952 93.3302 19.376L95.5862 20.024C95.3142 20.632 94.8982 21.184 94.3382 21.68C93.7942 22.16 93.1462 22.544 92.3942 22.832C91.6422 23.104 90.8262 23.24 89.9462 23.24ZM86.1782 15.848H93.7622C93.7142 15.128 93.5062 14.496 93.1382 13.952C92.7862 13.392 92.3302 12.96 91.7702 12.656C91.2262 12.336 90.6182 12.176 89.9462 12.176C89.2902 12.176 88.6822 12.336 88.1222 12.656C87.5782 12.96 87.1302 13.392 86.7782 13.952C86.4262 14.496 86.2262 15.128 86.1782 15.848ZM97.8356 5.48H100.476V19.376C100.476 20.016 100.572 20.424 100.764 20.6C100.956 20.776 101.196 20.864 101.484 20.864C101.804 20.864 102.1 20.832 102.372 20.768C102.66 20.704 102.908 20.624 103.116 20.528L103.5 22.616C103.116 22.776 102.66 22.912 102.132 23.024C101.604 23.136 101.132 23.192 100.716 23.192C99.8196 23.192 99.1156 22.944 98.6036 22.448C98.0916 21.936 97.8356 21.232 97.8356 20.336V5.48ZM104.334 5.48H106.974V19.376C106.974 20.016 107.07 20.424 107.262 20.6C107.454 20.776 107.694 20.864 107.982 20.864C108.302 20.864 108.598 20.832 108.87 20.768C109.158 20.704 109.406 20.624 109.614 20.528L109.998 22.616C109.614 22.776 109.158 22.912 108.63 23.024C108.102 23.136 107.63 23.192 107.214 23.192C106.318 23.192 105.614 22.944 105.102 22.448C104.59 21.936 104.334 21.232 104.334 20.336V5.48ZM116.497 23.24C115.521 23.24 114.633 23.072 113.833 22.736C113.049 22.384 112.369 21.912 111.793 21.32C111.217 20.712 110.769 20.024 110.449 19.256C110.145 18.472 109.993 17.64 109.993 16.76C109.993 15.576 110.265 14.496 110.809 13.52C111.353 12.528 112.113 11.736 113.089 11.144C114.065 10.536 115.209 10.232 116.521 10.232C117.833 10.232 118.961 10.536 119.905 11.144C120.865 11.736 121.609 12.52 122.137 13.496C122.665 14.472 122.929 15.52 122.929 16.64C122.929 16.832 122.921 17.016 122.905 17.192C122.889 17.352 122.873 17.488 122.857 17.6H112.801C112.849 18.336 113.049 18.984 113.401 19.544C113.769 20.088 114.233 20.52 114.793 20.84C115.353 21.144 115.953 21.296 116.593 21.296C117.297 21.296 117.961 21.12 118.585 20.768C119.225 20.416 119.657 19.952 119.881 19.376L122.137 20.024C121.865 20.632 121.449 21.184 120.889 21.68C120.345 22.16 119.697 22.544 118.945 22.832C118.193 23.104 117.377 23.24 116.497 23.24ZM112.729 15.848H120.313C120.265 15.128 120.057 14.496 119.689 13.952C119.337 13.392 118.881 12.96 118.321 12.656C117.777 12.336 117.169 12.176 116.497 12.176C115.841 12.176 115.233 12.336 114.673 12.656C114.129 12.96 113.681 13.392 113.329 13.952C112.977 14.496 112.777 15.128 112.729 15.848ZM131.419 12.728C130.395 12.744 129.483 12.976 128.683 13.424C127.899 13.872 127.339 14.504 127.003 15.32V23H124.363V10.448H126.811V13.256C127.243 12.392 127.811 11.704 128.515 11.192C129.219 10.664 129.963 10.376 130.747 10.328C130.907 10.328 131.035 10.328 131.131 10.328C131.243 10.328 131.339 10.336 131.419 10.352V12.728Z" fill="white"/>
</svg>
