<svg width="340" height="47" viewBox="0 0 340 47" fill="none" xmlns="http://www.w3.org/2000/svg">
<g clip-path="url(#clip0_1_9540)">
<mask id="mask0_1_9540" style="mask-type:alpha" maskUnits="userSpaceOnUse" x="0" y="0" width="67" height="47">
<rect width="66.9973" height="47" fill="#ADACAC"/>
</mask>
<g mask="url(#mask0_1_9540)">
<path d="M21.4616 46.8672C25.0965 46.8672 28.3366 46.1706 31.1822 44.7773C34.0278 43.3632 36.3125 41.4188 38.0365 38.9442C39.7812 36.4695 40.7989 33.6413 41.0897 30.4596L41.1209 30.1165H31.9611L31.8988 30.4284C31.5042 32.2168 30.8291 33.7453 29.8737 35.0138C28.9182 36.2616 27.7239 37.2181 26.2908 37.8836C24.8784 38.549 23.2686 38.8818 21.4616 38.8818C19.073 38.8818 16.9856 38.2683 15.1993 37.0414C13.4338 35.7937 12.063 34.0261 11.0868 31.7386C10.1313 29.4303 9.65359 26.6957 9.65359 23.5348V23.5036C9.65359 20.3635 10.1313 17.6601 11.0868 15.3934C12.063 13.1059 13.4338 11.3487 15.1993 10.1217C16.9648 8.8948 19.0522 8.28133 21.4616 8.28133C23.331 8.28133 24.9718 8.62446 26.3842 9.31071C27.8174 9.97616 28.9909 10.9224 29.9048 12.1493C30.8187 13.3762 31.4522 14.8215 31.8053 16.4851L31.9299 17.0154H41.0897L41.0586 16.7347C40.7678 13.5322 39.7604 10.704 38.0365 8.25014C36.3125 5.77549 34.0278 3.83112 31.1822 2.41703C28.3366 1.00294 25.0965 0.295898 21.4616 0.295898C17.079 0.295898 13.2884 1.23169 10.0898 3.10328C6.89111 4.95407 4.41942 7.61588 2.6747 11.0887C0.929978 14.5408 0.0576172 18.6894 0.0576172 23.5348V23.566C0.0576172 28.3905 0.919593 32.5496 2.64354 36.0432C4.38827 39.516 6.85996 42.1882 10.0586 44.0598C13.278 45.9314 17.079 46.8672 21.4616 46.8672Z" fill="white"/>
<path d="M67.2294 46.8672C71.6951 46.8672 75.5376 45.921 78.757 44.0286C81.9972 42.1363 84.5001 39.4537 86.2656 35.9808C88.0311 32.4872 88.9138 28.3593 88.9138 23.5972V23.5348C88.9138 18.7518 88.0311 14.6343 86.2656 11.1823C84.5001 7.70946 81.9972 5.02685 78.757 3.13447C75.5168 1.24209 71.6743 0.295898 67.2294 0.295898C62.8053 0.295898 58.9627 1.24209 55.7018 3.13447C52.4616 5.00606 49.9587 7.67827 48.1932 11.1511C46.4278 14.6239 45.545 18.7518 45.545 23.5348V23.5972C45.545 28.3593 46.4174 32.4872 48.1621 35.9808C49.9276 39.4537 52.4304 42.1363 55.6706 44.0286C58.9316 45.921 62.7845 46.8672 67.2294 46.8672ZM67.2294 38.8818C64.7577 38.8818 62.6184 38.2579 60.8113 37.0102C59.0043 35.7625 57.6023 33.9949 56.6053 31.7074C55.6291 29.4199 55.141 26.7165 55.141 23.5972V23.5348C55.141 20.3739 55.6291 17.6601 56.6053 15.3934C57.6023 13.1059 59.0043 11.3487 60.8113 10.1217C62.6391 8.8948 64.7785 8.28133 67.2294 8.28133C69.6803 8.28133 71.8093 8.9052 73.6163 10.1529C75.4441 11.3799 76.8461 13.1371 77.8224 15.4246C78.8193 17.6913 79.3178 20.3947 79.3178 23.5348V23.5972C79.3178 26.6957 78.8297 29.3887 77.8535 31.6762C76.8773 33.9637 75.4857 35.7417 73.6786 37.0102C71.8716 38.2579 69.7219 38.8818 67.2294 38.8818Z" fill="white"/>
<path d="M94.9892 46.0874H104.367V16.6099H108.324L100.441 10.652L124.93 46.0874H133.093V1.07573H123.715V30.3349H119.789L127.672 36.2927L103.214 1.07573H94.9892V46.0874Z" fill="white"/>
<path d="M151.35 46.0874H160.759V8.84281H173.782V1.07573H138.358V8.84281H151.35V46.0874Z" fill="white"/>
<path d="M178.985 46.0874H208.77V38.3203H188.394V26.9972H207.617V19.6356H188.394V8.84281H208.77V1.07573H178.985V46.0874Z" fill="white"/>
<path d="M215.562 46.0874H224.94V16.6099H228.897L221.014 10.652L245.503 46.0874H253.665V1.07573H244.288V30.3349H240.362L248.244 36.2927L223.787 1.07573H215.562V46.0874Z" fill="white"/>
<path d="M271.923 46.0874H281.332V8.84281H294.355V1.07573H258.931V8.84281H271.923V46.0874Z" fill="white"/>
</g>
<mask id="mask1_1_9540" style="mask-type:alpha" maskUnits="userSpaceOnUse" x="113" y="0" width="227" height="47">
<rect x="113.029" width="226.971" height="47" fill="#ADACAC"/>
</mask>
<g mask="url(#mask1_1_9540)">
<path d="M67.0378 46.8672C70.6726 46.8672 73.9128 46.1706 76.7584 44.7773C79.6039 43.3632 81.8887 41.4188 83.6126 38.9442C85.3574 36.4695 86.3751 33.6413 86.6659 30.4596L86.6971 30.1165H77.5373L77.475 30.4284C77.0803 32.2168 76.4053 33.7453 75.4498 35.0138C74.4944 36.2616 73.3001 37.2181 71.8669 37.8836C70.4545 38.549 68.8448 38.8818 67.0378 38.8818C64.6492 38.8818 62.5617 38.2683 60.7755 37.0414C59.01 35.7937 57.6391 34.0261 56.6629 31.7386C55.7075 29.4303 55.2298 26.6957 55.2298 23.5348V23.5036C55.2298 20.3635 55.7075 17.6601 56.6629 15.3934C57.6391 13.1059 59.01 11.3487 60.7755 10.1217C62.541 8.8948 64.6284 8.28133 67.0378 8.28133C68.9071 8.28133 70.548 8.62446 71.9604 9.31071C73.3936 9.97616 74.5671 10.9224 75.481 12.1493C76.3949 13.3762 77.0284 14.8215 77.3815 16.4851L77.5061 17.0154H86.6659L86.6348 16.7347C86.344 13.5322 85.3366 10.704 83.6126 8.25014C81.8887 5.77549 79.6039 3.83112 76.7584 2.41703C73.9128 1.00294 70.6726 0.295898 67.0378 0.295898C62.6552 0.295898 58.8646 1.23169 55.6659 3.10328C52.4673 4.95407 49.9956 7.61588 48.2509 11.0887C46.5061 14.5408 45.6338 18.6894 45.6338 23.5348V23.566C45.6338 28.3905 46.4958 32.5496 48.2197 36.0432C49.9644 39.516 52.4361 42.1882 55.6348 44.0598C58.8542 45.9314 62.6552 46.8672 67.0378 46.8672Z" fill="white"/>
<path d="M112.806 46.8672C117.271 46.8672 121.114 45.921 124.333 44.0286C127.573 42.1363 130.076 39.4537 131.842 35.9808C133.607 32.4872 134.49 28.3593 134.49 23.5972V23.5348C134.49 18.7518 133.607 14.6343 131.842 11.1823C130.076 7.70946 127.573 5.02685 124.333 3.13447C121.093 1.24209 117.25 0.295898 112.806 0.295898C108.381 0.295898 104.539 1.24209 101.278 3.13447C98.0378 5.00606 95.5349 7.67827 93.7694 11.1511C92.0039 14.6239 91.1212 18.7518 91.1212 23.5348V23.5972C91.1212 28.3593 91.9935 32.4872 93.7383 35.9808C95.5038 39.4537 98.0066 42.1363 101.247 44.0286C104.508 45.921 108.361 46.8672 112.806 46.8672ZM112.806 38.8818C110.334 38.8818 108.195 38.2579 106.387 37.0102C104.58 35.7625 103.178 33.9949 102.181 31.7074C101.205 29.4199 100.717 26.7165 100.717 23.5972V23.5348C100.717 20.3739 101.205 17.6601 102.181 15.3934C103.178 13.1059 104.58 11.3487 106.387 10.1217C108.215 8.8948 110.355 8.28133 112.806 8.28133C115.256 8.28133 117.385 8.9052 119.193 10.1529C121.02 11.3799 122.422 13.1371 123.399 15.4246C124.396 17.6913 124.894 20.3947 124.894 23.5348V23.5972C124.894 26.6957 124.406 29.3887 123.43 31.6762C122.453 33.9637 121.062 35.7417 119.255 37.0102C117.448 38.2579 115.298 38.8818 112.806 38.8818Z" fill="white"/>
<path d="M140.565 46.0874H149.943V16.6099H153.9L146.018 10.652L170.506 46.0874H178.669V1.07573H169.291V30.3349H165.365L173.248 36.2927L148.79 1.07573H140.565V46.0874Z" fill="white"/>
<path d="M196.926 46.0874H206.335V8.84281H219.358V1.07573H183.934V8.84281H196.926V46.0874Z" fill="white"/>
<path d="M224.561 46.0874H254.346V38.3203H233.97V26.9972H253.193V19.6356H233.97V8.84281H254.346V1.07573H224.561V46.0874Z" fill="white"/>
<path d="M261.138 46.0874H270.516V16.6099H274.473L266.59 10.652L291.079 46.0874H299.242V1.07573H289.864V30.3349H285.938L293.82 36.2927L269.363 1.07573H261.138V46.0874Z" fill="white"/>
<path d="M317.499 46.0874H326.908V8.84281H339.931V1.07573H304.507V8.84281H317.499V46.0874Z" fill="white"/>
</g>
<mask id="mask2_1_9540" style="mask-type:alpha" maskUnits="userSpaceOnUse" x="66" y="0" width="48" height="47">
<rect x="66.9971" width="46.0322" height="47" fill="#D9D9D9"/>
</mask>
<g mask="url(#mask2_1_9540)">
<path d="M-4532.08 46.8672C-4164.97 46.8672 -3837.71 46.1706 -3550.3 44.7773C-3262.9 43.3632 -3032.14 41.4188 -2858.02 38.9442C-2681.81 36.4695 -2579.01 33.6413 -2549.64 30.4596L-2546.5 30.1165H-3471.64L-3477.93 30.4284C-3517.79 32.2168 -3585.97 33.7453 -3682.47 35.0138C-3778.97 36.2616 -3899.59 37.2181 -4044.34 37.8836C-4186.99 38.549 -4349.57 38.8818 -4532.08 38.8818C-4773.33 38.8818 -4984.16 38.2683 -5164.58 37.0414C-5342.89 35.7937 -5481.35 34.0261 -5579.95 31.7386C-5676.45 29.4303 -5724.7 26.6957 -5724.7 23.5348V23.5036C-5724.7 20.3635 -5676.45 17.6601 -5579.95 15.3934C-5481.35 13.1059 -5342.89 11.3487 -5164.58 10.1217C-4986.26 8.8948 -4775.43 8.28133 -4532.08 8.28133C-4343.28 8.28133 -4177.55 8.62446 -4034.9 9.31071C-3890.15 9.97616 -3771.62 10.9224 -3679.32 12.1493C-3587.02 13.3762 -3523.03 14.8215 -3487.37 16.4851L-3474.78 17.0154H-2549.64L-2552.79 16.7347C-2582.16 13.5322 -2683.9 10.704 -2858.02 8.25014C-3032.14 5.77549 -3262.9 3.83112 -3550.3 2.41703C-3837.71 1.00294 -4164.97 0.295898 -4532.08 0.295898C-4974.72 0.295898 -5357.58 1.23169 -5680.64 3.10328C-6003.71 4.95407 -6253.35 7.61588 -6429.56 11.0887C-6605.78 14.5408 -6693.89 18.6894 -6693.89 23.5348V23.566C-6693.89 28.3905 -6606.83 32.5496 -6432.71 36.0432C-6256.49 39.516 -6006.85 42.1882 -5683.79 44.0598C-5358.63 45.9314 -4974.72 46.8672 -4532.08 46.8672Z" fill="white"/>
<path d="M90.4629 46.8672C541.494 46.8672 929.591 45.921 1254.75 44.0286C1582.01 42.1363 1834.8 39.4537 2013.12 35.9808C2191.43 32.4872 2280.59 28.3593 2280.59 23.5972V23.5348C2280.59 18.7518 2191.43 14.6343 2013.12 11.1823C1834.8 7.70946 1582.01 5.02685 1254.75 3.13447C927.493 1.24209 539.396 0.295898 90.4629 0.295898C-356.373 0.295898 -744.47 1.24209 -1073.83 3.13447C-1401.09 5.00606 -1653.87 7.67827 -1832.19 11.1511C-2010.5 14.6239 -2099.66 18.7518 -2099.66 23.5348V23.5972C-2099.66 28.3593 -2011.55 32.4872 -1835.34 35.9808C-1657.02 39.4537 -1404.23 42.1363 -1076.97 44.0286C-747.616 45.921 -358.471 46.8672 90.4629 46.8672ZM90.4629 38.8818C-159.178 38.8818 -375.253 38.2579 -557.764 37.0102C-740.274 35.7625 -881.877 33.9949 -982.572 31.7074C-1081.17 29.4199 -1130.47 26.7165 -1130.47 23.5972V23.5348C-1130.47 20.3739 -1081.17 17.6601 -982.572 15.3934C-881.877 13.1059 -740.274 11.3487 -557.764 10.1217C-373.155 8.8948 -157.08 8.28133 90.4629 8.28133C338.006 8.28133 553.032 8.9052 735.543 10.1529C920.151 11.3799 1061.75 13.1371 1160.35 15.4246C1261.05 17.6913 1311.39 20.3947 1311.39 23.5348V23.5972C1311.39 26.6957 1262.1 29.3887 1163.5 31.6762C1064.9 33.9637 924.347 35.7417 741.836 37.0102C559.326 38.2579 342.201 38.8818 90.4629 38.8818Z" fill="white"/>
<path d="M2894.2 46.0874H3841.37V16.6099H4241L3444.88 10.652L5918.21 46.0874H6742.65V1.07573H5795.49V30.3349H5399L6195.12 36.2927L3724.94 1.07573H2894.2V46.0874Z" fill="white"/>
<path d="M8586.64 46.0874H9536.95V8.84281H10852.3V1.07573H7274.45V8.84281H8586.64V46.0874Z" fill="white"/>
<path d="M11377.8 46.0874H14386.1V38.3203H12328.1V26.9972H14269.6V19.6356H12328.1V8.84281H14386.1V1.07573H11377.8V46.0874Z" fill="white"/>
<path d="M15072 46.0874H16019.2V16.6099H16418.8L15622.7 10.652L18096.1 46.0874H18920.5V1.07573H17973.3V30.3349H17576.8L18373 36.2927L15902.8 1.07573H15072V46.0874Z" fill="white"/>
<path d="M20764.5 46.0874H21714.8V8.84281H23030.1V1.07573H19452.3V8.84281H20764.5V46.0874Z" fill="white"/>
</g>
</g>
<defs>
<clipPath id="clip0_1_9540">
<rect width="340" height="47" fill="white"/>
</clipPath>
</defs>
</svg>
